REM DIRINDEX 1\2,1\3,1\4,1\5
REM DIRNAME "folder01","folder02","folder03","folder04","folder05"
TITLE ""
FILE "P1Q_j_1684-1697.mp3" MP3
  TRACK 01 AUDIO
    TITLE "0:"
    INDEX 01 00:00:00
  TRACK 02 AUDIO
    TITLE "3:cjc173_0252"
    INDEX 01 00:00:12
  TRACK 03 AUDIO
    TITLE "0:"
    INDEX 01 00:01:59
  TRACK 04 AUDIO
    TITLE "4:cjc173_0253"
    INDEX 01 00:02:03
  TRACK 05 AUDIO
    TITLE "0:"
    INDEX 01 00:04:32
  TRACK 06 AUDIO
    TITLE "5:cjc173_0254"
    INDEX 01 00:04:51
  TRACK 07 AUDIO
    TITLE "0:"
    INDEX 01 00:09:23
  TRACK 08 AUDIO
    TITLE "3:cjc173_0255"
    INDEX 01 00:09:68
  TRACK 09 AUDIO
    TITLE "0:"
    INDEX 01 00:11:06
  TRACK 10 AUDIO
    TITLE "4:cjc173_0256"
    INDEX 01 00:11:28
  TRACK 11 AUDIO
    TITLE "0:"
    INDEX 01 00:15:41
  TRACK 12 AUDIO
    TITLE "5:cjc173_0257"
    INDEX 01 00:15:61
  TRACK 13 AUDIO
    TITLE "0:"
    INDEX 01 00:19:49
  TRACK 14 AUDIO
    TITLE "3:cjc173_0258"
    INDEX 01 00:20:19
  TRACK 15 AUDIO
    TITLE "0:"
    INDEX 01 00:21:67
  TRACK 16 AUDIO
    TITLE "4:cjc173_0259"
    INDEX 01 00:22:12
  TRACK 17 AUDIO
    TITLE "0:"
    INDEX 01 00:26:10
  TRACK 18 AUDIO
    TITLE "5:cjc173_0260"
    INDEX 01 00:26:29
  TRACK 19 AUDIO
    TITLE "0:"
    INDEX 01 00:29:59
  TRACK 20 AUDIO
    TITLE "3:cjc173_0261"
    INDEX 01 00:30:31
  TRACK 21 AUDIO
    TITLE "0:"
    INDEX 01 00:32:59
  TRACK 22 AUDIO
    TITLE "4:cjc173_0262"
    INDEX 01 00:33:04
  TRACK 23 AUDIO
    TITLE "0:"
    INDEX 01 00:35:20
  TRACK 24 AUDIO
    TITLE "5:cjc173_0263"
    INDEX 01 00:35:42
  TRACK 25 AUDIO
    TITLE "0:"
    INDEX 01 00:39:63
  TRACK 26 AUDIO
    TITLE "3:cjc173_0264"
    INDEX 01 00:40:33
  TRACK 27 AUDIO
    TITLE "0:"
    INDEX 01 00:41:43
  TRACK 28 AUDIO
    TITLE "4:cjc173_0265"
    INDEX 01 00:41:72
  TRACK 29 AUDIO
    TITLE "0:"
    INDEX 01 00:46:12
  TRACK 30 AUDIO
    TITLE "5:cjc173_0266"
    INDEX 01 00:46:30
  TRACK 31 AUDIO
    TITLE "0:"
    INDEX 01 00:52:11
  TRACK 32 AUDIO
    TITLE "3:cjc173_0267"
    INDEX 01 00:52:56
  TRACK 33 AUDIO
    TITLE "0:"
    INDEX 01 00:54:10
  TRACK 34 AUDIO
    TITLE "4:cjc173_0268"
    INDEX 01 00:54:31
  TRACK 35 AUDIO
    TITLE "0:"
    INDEX 01 00:55:52
  TRACK 36 AUDIO
    TITLE "5:cjc173_0269"
    INDEX 01 00:55:72
  TRACK 37 AUDIO
    TITLE "0:"
    INDEX 01 01:00:50
  TRACK 38 AUDIO
    TITLE "3:cjc173_0270"
    INDEX 01 01:01:20
  TRACK 39 AUDIO
    TITLE "0:"
    INDEX 01 01:02:58
  TRACK 40 AUDIO
    TITLE "4:cjc173_0271"
    INDEX 01 01:03:03
  TRACK 41 AUDIO
    TITLE "0:"
    INDEX 01 01:06:43
  TRACK 42 AUDIO
    TITLE "5:cjc173_0272"
    INDEX 01 01:06:60
  TRACK 43 AUDIO
    TITLE "0:"
    INDEX 01 01:12:29
  TRACK 44 AUDIO
    TITLE "3:cjc173_0273"
    INDEX 01 01:12:74
  TRACK 45 AUDIO
    TITLE "0:"
    INDEX 01 01:14:60
  TRACK 46 AUDIO
    TITLE "4:cjc173_0274"
    INDEX 01 01:15:04
  TRACK 47 AUDIO
    TITLE "0:"
    INDEX 01 01:17:05
  TRACK 48 AUDIO
    TITLE "5:cjc173_0275"
    INDEX 01 01:17:23
  TRACK 49 AUDIO
    TITLE "0:"
    INDEX 01 01:22:55
  TRACK 50 AUDIO
    TITLE "3:cjc173_0276"
    INDEX 01 01:23:25
  TRACK 51 AUDIO
    TITLE "0:"
    INDEX 01 01:24:62
  TRACK 52 AUDIO
    TITLE "4:cjc173_0277"
    INDEX 01 01:25:07
  TRACK 53 AUDIO
    TITLE "0:"
    INDEX 01 01:30:74
  TRACK 54 AUDIO
    TITLE "5:cjc173_0278"
    INDEX 01 01:31:19
  TRACK 55 AUDIO
    TITLE "0:"
    INDEX 01 01:34:09
  TRACK 56 AUDIO
    TITLE "3:cjc173_0279"
    INDEX 01 01:34:54
  TRACK 57 AUDIO
    TITLE "0:"
    INDEX 01 01:36:08
  TRACK 58 AUDIO
    TITLE "4:cjc173_0280"
    INDEX 01 01:36:30
  TRACK 59 AUDIO
    TITLE "0:"
    INDEX 01 01:40:61
  TRACK 60 AUDIO
    TITLE "5:cjc173_0281"
    INDEX 01 01:41:06
  TRACK 61 AUDIO
    TITLE "0:"
    INDEX 01 01:45:35
  TRACK 62 AUDIO
    TITLE "3:cjc173_0282"
    INDEX 01 01:46:07
  TRACK 63 AUDIO
    TITLE "0:"
    INDEX 01 01:47:47
  TRACK 64 AUDIO
    TITLE "4:cjc173_0283"
    INDEX 01 01:47:67
  TRACK 65 AUDIO
    TITLE "0:"
    INDEX 01 01:54:36
  TRACK 66 AUDIO
    TITLE "5:cjc173_0284"
    INDEX 01 01:54:55
  TRACK 67 AUDIO
    TITLE "0:"
    INDEX 01 01:58:71
  TRACK 68 AUDIO
    TITLE "3:cjc173_0285"
    INDEX 01 01:59:43
  TRACK 69 AUDIO
    TITLE "0:"
    INDEX 01 02:01:02
  TRACK 70 AUDIO
    TITLE "4:cjc173_0286"
    INDEX 01 02:01:24
  TRACK 71 AUDIO
    TITLE "0:"
    INDEX 01 02:04:52
  TRACK 72 AUDIO
    TITLE "5:cjc173_0287"
    INDEX 01 02:04:71
  TRACK 73 AUDIO
    TITLE "0:"
    INDEX 01 02:09:04
  TRACK 74 AUDIO
    TITLE "3:cjc173_0288"
    INDEX 01 02:09:49
  TRACK 75 AUDIO
    TITLE "0:"
    INDEX 01 02:11:13
  TRACK 76 AUDIO
    TITLE "4:cjc173_0289"
    INDEX 01 02:11:34
  TRACK 77 AUDIO
    TITLE "0:"
    INDEX 01 02:14:09
  TRACK 78 AUDIO
    TITLE "5:cjc173_0290"
    INDEX 01 02:14:31
  TRACK 79 AUDIO
    TITLE "0:"
    INDEX 01 02:18:42
  TRACK 80 AUDIO
    TITLE "3:cjc173_0291"
    INDEX 01 02:19:12
  TRACK 81 AUDIO
    TITLE "0:"
    INDEX 01 02:20:51
  TRACK 82 AUDIO
    TITLE "4:cjc173_0292"
    INDEX 01 02:20:70
  TRACK 83 AUDIO
    TITLE "0:"
    INDEX 01 02:24:70
  TRACK 84 AUDIO
    TITLE "5:cjc173_0293"
    INDEX 01 02:25:17
  TRACK 85 AUDIO
    TITLE "0:"
    INDEX 01 02:29:01
